<svg width="28" height="27" viewBox="0 0 28 27" fill="none" xmlns="http://www.w3.org/2000/svg">
<path d="M1 1H5.72727L8.89454 16.9405C9.00262 17.4886 9.29862 17.9809 9.73074 18.3313C10.1629 18.6817 10.7036 18.8678 11.2582 18.8571H22.7455C23.3001 18.8678 23.8408 18.6817 24.2729 18.3313C24.705 17.9809 25.001 17.4886 25.1091 16.9405L27 6.95238H6.90909M11.6364 24.8095C11.6364 25.467 11.1072 26 10.4545 26C9.80184 26 9.27273 25.467 9.27273 24.8095C9.27273 24.152 9.80184 23.619 10.4545 23.619C11.1072 23.619 11.6364 24.152 11.6364 24.8095ZM24.6364 24.8095C24.6364 25.467 24.1072 26 23.4545 26C22.8018 26 22.2727 25.467 22.2727 24.8095C22.2727 24.152 22.8018 23.619 23.4545 23.619C24.1072 23.619 24.6364 24.152 24.6364 24.8095Z" stroke="black" stroke-width="2" stroke-linecap="round" stroke-linejoin="round"/>
</svg>
